<?xml version="1.0" encoding="UTF-8"?>
<svg id="Layer_1" data-name="Layer 1" xmlns="http://www.w3.org/2000/svg" viewBox="0 0 583.24 580">
  <defs>
    <style>
      .cls-1 {
        stroke-width: 0px;
      }
    </style>
  </defs>
  <path class="cls-1" d="m291.25,32.64c17.7,0,32,14.3,32,32v10.4c93.7,13.9,167.7,88,181.6,181.6h10.4c17.7,0,32,14.3,32,32s-14.3,32-32,32h-10.4c-13.9,93.7-88,167.7-181.6,181.6v10.4c0,17.7-14.3,32-32,32s-32-14.3-32-32v-10.4c-93.7-13.9-167.7-87.9-181.6-181.6h-10.4c-17.7,0-32-14.3-32-32s14.3-32,32-32h10.4c13.9-93.7,87.9-167.7,181.6-181.6v-10.4c0-17.7,14.3-32,32-32Zm-148.6,288c12.5,58.3,58.4,104.1,116.6,116.6v-20.6c0-17.7,14.3-32,32-32s32,14.3,32,32v20.6c58.3-12.5,104.1-58.4,116.6-116.6h-20.6c-17.7,0-32-14.3-32-32s14.3-32,32-32h20.6c-12.5-58.3-58.3-104.1-116.6-116.6v20.6c0,17.7-14.3,32-32,32s-32-14.3-32-32v-20.6c-58.3,12.5-104.1,58.3-116.6,116.6h20.6c17.7,0,32,14.3,32,32s-14.3,32-32,32h-20.6Zm148.6-64c17.67,0,32,14.33,32,32s-14.33,32-32,32-32-14.33-32-32,14.33-32,32-32Z"/>
</svg>