<?xml version="1.0" encoding="UTF-8"?>
<svg id="logo" data-name="Layer 1" xmlns="http://www.w3.org/2000/svg" viewBox="0 0 500 500" fill="currentColor">
  <path d="m262.49,5.18c-6.9-6.9-18.12-6.9-25.02,0l-70.69,70.69c-5.08,5.08-6.57,12.65-3.81,19.27s9.17,10.94,16.35,10.94h141.39c7.12,0,13.59-4.31,16.35-10.94,2.76-6.63,1.22-14.19-3.81-19.27L262.54,5.18h-.06Z" stroke-width="0"/>
  <path d="m5.18,237.51c-6.9,6.9-6.9,18.12,0,25.02l70.69,70.69c5.08,5.08,12.65,6.57,19.27,3.81s10.94-9.17,10.94-16.35v-141.39c0-7.12-4.31-13.59-10.94-16.35-6.63-2.76-14.19-1.22-19.27,3.81L5.18,237.46v.06Z" stroke-width="0"/>
  <path d="m494.82,237.11c6.9,6.9,6.9,18.12,0,25.02l-70.69,70.69c-5.08,5.08-12.65,6.57-19.27,3.81-6.63-2.76-10.94-9.17-10.94-16.35v-141.39c0-7.12,4.31-13.59,10.94-16.35,6.63-2.76,14.19-1.22,19.27,3.81l70.69,70.69v.06Z" stroke-width="0"/>
  <path d="m262.08,494.82c-6.9,6.9-18.12,6.9-25.02,0l-70.69-70.69c-5.08-5.08-6.57-12.65-3.81-19.27s9.17-10.94,16.35-10.94h141.39c7.12,0,13.59,4.31,16.35,10.94,2.76,6.63,1.22,14.19-3.81,19.27l-70.69,70.69h-.06Z" stroke-width="0"/>
  <circle cx="250" cy="250" r="127.84" stroke-width="0"/>
</svg>