<?xml version="1.0" encoding="UTF-8"?>
<svg id="Layer_1" data-name="Layer 1" xmlns="http://www.w3.org/2000/svg" viewBox="0 0 858.56 855.33">
  <defs>
    <style>
      .cls-1 {
        stroke-width: 0px;
      }
    </style>
  </defs>
  <path class="cls-1" d="m588.06,378.44c0,45.9-14.9,88.3-40,122.7l126.6,126.7c12.5,12.5,12.5,32.8,0,45.3-12.5,12.5-32.8,12.5-45.3,0l-126.6-126.7c-34.4,25.2-76.8,40-122.7,40-114.9,0-208-93.1-208-208s93.1-208,208-208,208,93.1,208,208Zm-208,144c79.53,0,144-64.47,144-144s-64.47-144-144-144-144,64.47-144,144,64.47,144,144,144Z"/>
</svg>